<mxfile host="app.diagrams.net" modified="2023-01-24T02:24:22.925Z" agent="5.0 (Windows NT 10.0; Win64; x64) AppleWebKit/537.36 (KHTML, like Gecko) Chrome/104.0.0.0 Safari/537.36" etag="eJiWMYPE9LpSVj7whPPV" version="20.8.8" type="github">
  <diagram name="Page-1" id="E8PX7FfV5SEQ1i3ryNOz">
    <mxGraphModel dx="1235" dy="636" grid="1" gridSize="10" guides="1" tooltips="1" connect="1" arrows="1" fold="1" page="1" pageScale="1" pageWidth="827" pageHeight="1169" math="0" shadow="0">
      <root>
        <mxCell id="0" />
        <mxCell id="1" parent="0" />
        <mxCell id="PFaP5s0lgvb6unWMamid-2" value="Terminate" style="ellipse;whiteSpace=wrap;html=1;strokeWidth=2;fontSize=16;rounded=1;fillColor=#FF6666;gradientColor=#FF0000;shadow=1;fontStyle=1" vertex="1" parent="1">
          <mxGeometry x="670" y="155" width="120" height="80" as="geometry" />
        </mxCell>
        <mxCell id="PFaP5s0lgvb6unWMamid-4" value="EUR * USD" style="rounded=0;whiteSpace=wrap;html=1;strokeWidth=2;shadow=1;gradientColor=#80FF00;fillColor=#CCFF99;fontSize=16;fontStyle=1" vertex="1" parent="1">
          <mxGeometry x="290" y="210" width="120" height="60" as="geometry" />
        </mxCell>
        <mxCell id="PFaP5s0lgvb6unWMamid-5" value="" style="endArrow=classic;html=1;rounded=1;fontSize=16;exitX=0.5;exitY=1;exitDx=0;exitDy=0;entryX=0.5;entryY=0;entryDx=0;entryDy=0;strokeWidth=2;shadow=1;" edge="1" parent="1" source="PFaP5s0lgvb6unWMamid-6" target="PFaP5s0lgvb6unWMamid-7">
          <mxGeometry width="50" height="50" relative="1" as="geometry">
            <mxPoint x="115" y="140" as="sourcePoint" />
            <mxPoint x="245" y="250" as="targetPoint" />
          </mxGeometry>
        </mxCell>
        <mxCell id="PFaP5s0lgvb6unWMamid-6" value="Start" style="ellipse;whiteSpace=wrap;html=1;strokeWidth=2;fontSize=16;rounded=1;fillColor=#FF6666;gradientColor=#FF0000;shadow=1;spacing=2;fontStyle=1" vertex="1" parent="1">
          <mxGeometry x="55" y="190" width="120" height="80" as="geometry" />
        </mxCell>
        <mxCell id="PFaP5s0lgvb6unWMamid-7" value="Choose a currency" style="shape=parallelogram;perimeter=parallelogramPerimeter;whiteSpace=wrap;html=1;fixedSize=1;strokeWidth=2;shadow=1;fillColor=#FFB366;gradientColor=#FF8000;fontSize=16;fontStyle=1" vertex="1" parent="1">
          <mxGeometry x="50" y="305" width="130" height="70" as="geometry" />
        </mxCell>
        <mxCell id="PFaP5s0lgvb6unWMamid-13" value="" style="endArrow=classic;html=1;rounded=1;fontSize=16;exitX=1;exitY=0.5;exitDx=0;exitDy=0;strokeWidth=2;shadow=1;entryX=0;entryY=0.5;entryDx=0;entryDy=0;" edge="1" parent="1" source="PFaP5s0lgvb6unWMamid-7" target="PFaP5s0lgvb6unWMamid-4">
          <mxGeometry width="50" height="50" relative="1" as="geometry">
            <mxPoint x="165" y="340" as="sourcePoint" />
            <mxPoint x="280" y="240" as="targetPoint" />
            <Array as="points">
              <mxPoint x="210" y="340" />
              <mxPoint x="210" y="240" />
            </Array>
          </mxGeometry>
        </mxCell>
        <mxCell id="PFaP5s0lgvb6unWMamid-14" value="" style="endArrow=classic;html=1;rounded=1;fontSize=16;exitX=1;exitY=0.5;exitDx=0;exitDy=0;strokeWidth=2;shadow=1;entryX=0;entryY=0.5;entryDx=0;entryDy=0;" edge="1" parent="1" source="PFaP5s0lgvb6unWMamid-7" target="PFaP5s0lgvb6unWMamid-26">
          <mxGeometry width="50" height="50" relative="1" as="geometry">
            <mxPoint x="165" y="340" as="sourcePoint" />
            <mxPoint x="280" y="290" as="targetPoint" />
            <Array as="points">
              <mxPoint x="210" y="340" />
              <mxPoint x="210" y="290" />
            </Array>
          </mxGeometry>
        </mxCell>
        <mxCell id="PFaP5s0lgvb6unWMamid-15" value="" style="endArrow=classic;html=1;rounded=1;fontSize=16;exitX=1;exitY=0.5;exitDx=0;exitDy=0;strokeWidth=2;shadow=1;entryX=0;entryY=0.5;entryDx=0;entryDy=0;" edge="1" parent="1" source="PFaP5s0lgvb6unWMamid-7" target="PFaP5s0lgvb6unWMamid-27">
          <mxGeometry width="50" height="50" relative="1" as="geometry">
            <mxPoint x="165" y="340" as="sourcePoint" />
            <mxPoint x="280" y="340" as="targetPoint" />
            <Array as="points">
              <mxPoint x="210" y="340" />
              <mxPoint x="230" y="340" />
            </Array>
          </mxGeometry>
        </mxCell>
        <mxCell id="PFaP5s0lgvb6unWMamid-16" value="" style="endArrow=classic;html=1;rounded=1;fontSize=16;exitX=1;exitY=0.5;exitDx=0;exitDy=0;strokeWidth=2;shadow=1;entryX=0;entryY=0.5;entryDx=0;entryDy=0;" edge="1" parent="1" source="PFaP5s0lgvb6unWMamid-7" target="PFaP5s0lgvb6unWMamid-30">
          <mxGeometry width="50" height="50" relative="1" as="geometry">
            <mxPoint x="165" y="340" as="sourcePoint" />
            <mxPoint x="280" y="440" as="targetPoint" />
            <Array as="points">
              <mxPoint x="210" y="340" />
              <mxPoint x="210" y="440" />
            </Array>
          </mxGeometry>
        </mxCell>
        <mxCell id="PFaP5s0lgvb6unWMamid-17" value="" style="endArrow=classic;html=1;rounded=1;fontSize=16;strokeWidth=2;shadow=1;entryX=0;entryY=0.5;entryDx=0;entryDy=0;exitX=1;exitY=0.5;exitDx=0;exitDy=0;" edge="1" parent="1" source="PFaP5s0lgvb6unWMamid-7" target="PFaP5s0lgvb6unWMamid-29">
          <mxGeometry width="50" height="50" relative="1" as="geometry">
            <mxPoint x="170" y="340" as="sourcePoint" />
            <mxPoint x="280" y="390" as="targetPoint" />
            <Array as="points">
              <mxPoint x="210" y="340" />
              <mxPoint x="210" y="390" />
            </Array>
          </mxGeometry>
        </mxCell>
        <mxCell id="PFaP5s0lgvb6unWMamid-18" value="&lt;i style=&quot;font-weight: bold;&quot;&gt;if &lt;br&gt;&lt;/i&gt;choice == 1" style="text;html=1;align=center;verticalAlign=middle;resizable=0;points=[];autosize=1;strokeColor=none;fillColor=none;" vertex="1" parent="1">
          <mxGeometry x="210" y="195" width="90" height="40" as="geometry" />
        </mxCell>
        <mxCell id="PFaP5s0lgvb6unWMamid-21" value="&lt;br&gt;&lt;i style=&quot;border-color: var(--border-color); color: rgb(0, 0, 0); font-family: Helvetica; font-size: 12px; font-variant-ligatures: normal; font-variant-caps: normal; letter-spacing: normal; orphans: 2; text-align: center; text-indent: 0px; text-transform: none; widows: 2; word-spacing: 0px; -webkit-text-stroke-width: 0px; background-color: rgb(251, 251, 251); text-decoration-thickness: initial; text-decoration-style: initial; text-decoration-color: initial; font-weight: bold;&quot;&gt;if&lt;br style=&quot;border-color: var(--border-color);&quot;&gt;&lt;/i&gt;&lt;span style=&quot;color: rgb(0, 0, 0); font-family: Helvetica; font-size: 12px; font-style: normal; font-variant-ligatures: normal; font-variant-caps: normal; font-weight: 400; letter-spacing: normal; orphans: 2; text-align: center; text-indent: 0px; text-transform: none; widows: 2; word-spacing: 0px; -webkit-text-stroke-width: 0px; background-color: rgb(251, 251, 251); text-decoration-thickness: initial; text-decoration-style: initial; text-decoration-color: initial; float: none; display: inline !important;&quot;&gt;choice == 2&lt;/span&gt;" style="text;html=1;align=center;verticalAlign=middle;resizable=0;points=[];autosize=1;strokeColor=none;fillColor=none;" vertex="1" parent="1">
          <mxGeometry x="210" y="230" width="90" height="60" as="geometry" />
        </mxCell>
        <mxCell id="PFaP5s0lgvb6unWMamid-23" value="&lt;i style=&quot;border-color: var(--border-color); font-weight: bold;&quot;&gt;if&lt;br style=&quot;border-color: var(--border-color);&quot;&gt;&lt;/i&gt;choice == 3" style="text;html=1;align=center;verticalAlign=middle;resizable=0;points=[];autosize=1;strokeColor=none;fillColor=none;" vertex="1" parent="1">
          <mxGeometry x="210" y="300" width="90" height="40" as="geometry" />
        </mxCell>
        <mxCell id="PFaP5s0lgvb6unWMamid-24" value="&lt;i style=&quot;border-color: var(--border-color); font-weight: bold;&quot;&gt;if&lt;br style=&quot;border-color: var(--border-color);&quot;&gt;&lt;/i&gt;choice == 4" style="text;html=1;align=center;verticalAlign=middle;resizable=0;points=[];autosize=1;strokeColor=none;fillColor=none;" vertex="1" parent="1">
          <mxGeometry x="210" y="350" width="90" height="40" as="geometry" />
        </mxCell>
        <mxCell id="PFaP5s0lgvb6unWMamid-25" value="&lt;i style=&quot;border-color: var(--border-color); font-weight: bold;&quot;&gt;if&lt;br style=&quot;border-color: var(--border-color);&quot;&gt;&lt;/i&gt;choice == 5" style="text;html=1;align=center;verticalAlign=middle;resizable=0;points=[];autosize=1;strokeColor=none;fillColor=none;" vertex="1" parent="1">
          <mxGeometry x="210" y="400" width="90" height="40" as="geometry" />
        </mxCell>
        <mxCell id="PFaP5s0lgvb6unWMamid-26" value="EUR * GBP" style="rounded=0;whiteSpace=wrap;html=1;strokeWidth=2;shadow=1;gradientColor=#80FF00;fillColor=#CCFF99;fontSize=16;fontStyle=1" vertex="1" parent="1">
          <mxGeometry x="290" y="260" width="120" height="60" as="geometry" />
        </mxCell>
        <mxCell id="PFaP5s0lgvb6unWMamid-27" value="EUR * CHF" style="rounded=0;whiteSpace=wrap;html=1;strokeWidth=2;shadow=1;gradientColor=#80FF00;fillColor=#CCFF99;fontSize=16;fontStyle=1" vertex="1" parent="1">
          <mxGeometry x="290" y="312.5" width="120" height="55" as="geometry" />
        </mxCell>
        <mxCell id="PFaP5s0lgvb6unWMamid-29" value="EUR * AUD" style="rounded=0;whiteSpace=wrap;html=1;strokeWidth=2;shadow=1;gradientColor=#80FF00;fillColor=#CCFF99;fontSize=16;fontStyle=1" vertex="1" parent="1">
          <mxGeometry x="290" y="360" width="120" height="60" as="geometry" />
        </mxCell>
        <mxCell id="PFaP5s0lgvb6unWMamid-30" value="EUR * CAD" style="rounded=0;whiteSpace=wrap;html=1;strokeWidth=2;shadow=1;gradientColor=#80FF00;fillColor=#CCFF99;fontSize=16;fontStyle=1" vertex="1" parent="1">
          <mxGeometry x="290" y="410" width="120" height="60" as="geometry" />
        </mxCell>
        <mxCell id="PFaP5s0lgvb6unWMamid-32" value="Display &lt;br&gt;result" style="shape=parallelogram;perimeter=parallelogramPerimeter;whiteSpace=wrap;html=1;fixedSize=1;strokeWidth=2;shadow=1;fillColor=#FFB366;gradientColor=#FF8000;fontSize=16;fontStyle=1" vertex="1" parent="1">
          <mxGeometry x="510" y="305" width="130" height="70" as="geometry" />
        </mxCell>
        <mxCell id="PFaP5s0lgvb6unWMamid-38" value="" style="endArrow=classic;html=1;rounded=1;fontSize=16;strokeWidth=2;shadow=1;exitX=1;exitY=0.5;exitDx=0;exitDy=0;entryX=0;entryY=0.5;entryDx=0;entryDy=0;" edge="1" parent="1" source="PFaP5s0lgvb6unWMamid-30" target="PFaP5s0lgvb6unWMamid-32">
          <mxGeometry width="50" height="50" relative="1" as="geometry">
            <mxPoint x="670" y="435" as="sourcePoint" />
            <mxPoint x="490" y="190" as="targetPoint" />
            <Array as="points">
              <mxPoint x="470" y="440" />
              <mxPoint x="470" y="340" />
            </Array>
          </mxGeometry>
        </mxCell>
        <mxCell id="PFaP5s0lgvb6unWMamid-39" value="" style="endArrow=classic;html=1;rounded=1;fontSize=16;strokeWidth=2;shadow=1;entryX=0.5;entryY=1;entryDx=0;entryDy=0;exitX=0.5;exitY=0;exitDx=0;exitDy=0;" edge="1" parent="1" source="PFaP5s0lgvb6unWMamid-43" target="PFaP5s0lgvb6unWMamid-2">
          <mxGeometry width="50" height="50" relative="1" as="geometry">
            <mxPoint x="690" y="290" as="sourcePoint" />
            <mxPoint x="720" y="420" as="targetPoint" />
            <Array as="points">
              <mxPoint x="730" y="270" />
            </Array>
          </mxGeometry>
        </mxCell>
        <mxCell id="PFaP5s0lgvb6unWMamid-42" value="" style="endArrow=classic;html=1;rounded=1;fontSize=16;strokeWidth=2;shadow=1;entryX=0;entryY=0.5;entryDx=0;entryDy=0;exitX=0.5;exitY=1;exitDx=0;exitDy=0;" edge="1" parent="1" source="PFaP5s0lgvb6unWMamid-43" target="PFaP5s0lgvb6unWMamid-7">
          <mxGeometry width="50" height="50" relative="1" as="geometry">
            <mxPoint x="680" y="400" as="sourcePoint" />
            <mxPoint x="730" y="550" as="targetPoint" />
            <Array as="points">
              <mxPoint x="730" y="520" />
              <mxPoint x="20" y="520" />
              <mxPoint x="20" y="340" />
            </Array>
          </mxGeometry>
        </mxCell>
        <mxCell id="PFaP5s0lgvb6unWMamid-43" value="&lt;font style=&quot;font-size: 16px;&quot;&gt;&lt;b&gt;Another &lt;br&gt;go&lt;/b&gt;&lt;/font&gt;" style="rhombus;whiteSpace=wrap;html=1;strokeWidth=2;shadow=1;gradientColor=#007FFF;fillColor=#99CCFF;" vertex="1" parent="1">
          <mxGeometry x="680" y="290" width="100" height="100" as="geometry" />
        </mxCell>
        <mxCell id="PFaP5s0lgvb6unWMamid-44" value="" style="endArrow=classic;html=1;rounded=1;fontSize=16;exitX=1;exitY=0.5;exitDx=0;exitDy=0;entryX=0;entryY=0.5;entryDx=0;entryDy=0;strokeWidth=2;shadow=1;" edge="1" parent="1" source="PFaP5s0lgvb6unWMamid-32" target="PFaP5s0lgvb6unWMamid-43">
          <mxGeometry width="50" height="50" relative="1" as="geometry">
            <mxPoint x="125" y="260" as="sourcePoint" />
            <mxPoint x="125" y="300" as="targetPoint" />
          </mxGeometry>
        </mxCell>
        <mxCell id="PFaP5s0lgvb6unWMamid-45" value="No" style="text;html=1;align=center;verticalAlign=middle;resizable=0;points=[];autosize=1;strokeColor=none;fillColor=none;" vertex="1" parent="1">
          <mxGeometry x="730" y="250" width="40" height="30" as="geometry" />
        </mxCell>
        <mxCell id="PFaP5s0lgvb6unWMamid-46" value="Yes" style="text;html=1;align=center;verticalAlign=middle;resizable=0;points=[];autosize=1;strokeColor=none;fillColor=none;" vertex="1" parent="1">
          <mxGeometry x="730" y="410" width="40" height="30" as="geometry" />
        </mxCell>
        <mxCell id="PFaP5s0lgvb6unWMamid-47" value="" style="endArrow=classic;html=1;rounded=1;fontSize=16;strokeWidth=2;shadow=1;exitX=1;exitY=0.5;exitDx=0;exitDy=0;entryX=0;entryY=0.5;entryDx=0;entryDy=0;" edge="1" parent="1" source="PFaP5s0lgvb6unWMamid-29" target="PFaP5s0lgvb6unWMamid-32">
          <mxGeometry width="50" height="50" relative="1" as="geometry">
            <mxPoint x="420" y="450" as="sourcePoint" />
            <mxPoint x="530" y="350" as="targetPoint" />
            <Array as="points">
              <mxPoint x="470" y="390" />
              <mxPoint x="470" y="340" />
            </Array>
          </mxGeometry>
        </mxCell>
        <mxCell id="PFaP5s0lgvb6unWMamid-48" value="" style="endArrow=classic;html=1;rounded=1;fontSize=16;strokeWidth=2;shadow=1;exitX=1;exitY=0.5;exitDx=0;exitDy=0;entryX=0;entryY=0.5;entryDx=0;entryDy=0;" edge="1" parent="1" source="PFaP5s0lgvb6unWMamid-27" target="PFaP5s0lgvb6unWMamid-32">
          <mxGeometry width="50" height="50" relative="1" as="geometry">
            <mxPoint x="420" y="400" as="sourcePoint" />
            <mxPoint x="500" y="280" as="targetPoint" />
            <Array as="points">
              <mxPoint x="460" y="340" />
            </Array>
          </mxGeometry>
        </mxCell>
        <mxCell id="PFaP5s0lgvb6unWMamid-49" value="" style="endArrow=classic;html=1;rounded=1;fontSize=16;strokeWidth=2;shadow=1;exitX=1;exitY=0.5;exitDx=0;exitDy=0;entryX=0;entryY=0.5;entryDx=0;entryDy=0;" edge="1" parent="1" source="PFaP5s0lgvb6unWMamid-26" target="PFaP5s0lgvb6unWMamid-32">
          <mxGeometry width="50" height="50" relative="1" as="geometry">
            <mxPoint x="420" y="350" as="sourcePoint" />
            <mxPoint x="530" y="350" as="targetPoint" />
            <Array as="points">
              <mxPoint x="470" y="290" />
              <mxPoint x="470" y="340" />
            </Array>
          </mxGeometry>
        </mxCell>
        <mxCell id="PFaP5s0lgvb6unWMamid-50" value="" style="endArrow=classic;html=1;rounded=1;fontSize=16;strokeWidth=2;shadow=1;exitX=1;exitY=0.5;exitDx=0;exitDy=0;entryX=0;entryY=0.5;entryDx=0;entryDy=0;" edge="1" parent="1" source="PFaP5s0lgvb6unWMamid-4" target="PFaP5s0lgvb6unWMamid-32">
          <mxGeometry width="50" height="50" relative="1" as="geometry">
            <mxPoint x="430" y="360" as="sourcePoint" />
            <mxPoint x="540" y="360" as="targetPoint" />
            <Array as="points">
              <mxPoint x="470" y="240" />
              <mxPoint x="470" y="340" />
            </Array>
          </mxGeometry>
        </mxCell>
      </root>
    </mxGraphModel>
  </diagram>
</mxfile>
